<svg width="270" height="300" viewBox="0 0 270 300" fill="none" xmlns="http://www.w3.org/2000/svg">
<g clip-path="url(#clip0_1_198)">
<mask id="mask0_1_198" style="mask-type:luminance" maskUnits="userSpaceOnUse" x="0" y="0" width="270" height="300">
<path d="M203.927 0L0 54.5244L65.4943 299.48L269.421 244.955L203.927 0Z" fill="white"/>
</mask>
<g mask="url(#mask0_1_198)">
<mask id="mask1_1_198" style="mask-type:luminance" maskUnits="userSpaceOnUse" x="39" y="27" width="231" height="264">
<path d="M211.412 27.9966L39.2787 74.0203L97.2875 290.979L269.421 244.955L211.412 27.9966Z" fill="white"/>
</mask>
<g mask="url(#mask1_1_198)">
<path d="M156.33 180.831C154.457 179.634 152.319 178.953 150.418 177.805C147.942 176.366 146.067 174.114 144.005 172.17C141.179 169.655 138.781 166.766 136.827 163.521C134.198 160.114 131.895 156.496 130.47 152.406C127.794 146.734 126.656 140.579 125.862 134.395C124.692 127.814 123.973 121.174 124.007 114.488C123.925 111.239 123.785 108.006 123.829 104.764C123.984 102.943 123.559 100.23 125.612 99.3915C127.422 98.6901 128.724 101.158 127.128 102.236C126.485 108.195 127.132 114.253 127.433 120.218C127.812 125.737 129.326 131.129 130.355 136.527C131.252 141.162 132.413 145.116 134.461 149.175C136.065 153.239 138.323 156.921 141.183 160.224C143.147 163.156 145.408 165.843 148.145 168.103C150.039 169.77 151.705 171.778 153.989 172.927C155.796 173.8 157.691 174.463 159.409 175.505C162.843 177.588 159.86 182.806 156.33 180.831Z" fill="#223F61"/>
<path d="M160.928 180.45C159.37 179.966 159.624 177.548 161.237 177.386C164.51 175.072 167.575 172.483 170.876 170.193C173.755 167.684 175.891 164.949 178.627 162.365C183.505 157.148 186.926 150.778 190.579 144.698C194.962 136.353 198.856 127.765 201.313 118.641C201.899 116.342 202.118 113.985 202.572 111.659C203.17 108.632 204.165 105.654 204.243 102.538C203.835 102.212 203.574 101.702 203.604 101.156C203.543 99.7647 204.055 97.5781 205.893 98.1012C208.654 99.3297 206.403 108.451 205.957 110.961C205.286 116.968 204.202 122.402 202.239 128.144C198.25 139.707 192.372 150.667 185.156 160.536C183.222 163.289 180.836 165.594 178.436 167.923C175.934 170.683 173.085 173.463 169.9 175.37C168.393 176.508 167.082 177.915 165.348 178.709C164.035 179.568 162.647 181.036 160.93 180.46L160.928 180.45Z" fill="#223F61"/>
<path d="M161.953 179.948C161.384 180.028 160.854 180.253 160.293 180.361C159.939 180.508 158.924 180.624 158.608 180.408C158.364 180.194 158.431 179.824 158.693 179.681C159.637 179.377 160.643 179.191 161.495 178.663C162.502 178.052 163.122 179.791 161.953 179.948Z" fill="#223F61"/>
<path d="M151.485 129.376C152.75 128.882 153.142 127.328 153.892 126.3C155.621 123.167 157.056 119.823 157.403 116.242C157.759 113.238 157.775 110.201 157.358 107.207C157.056 105.962 157.038 104.384 156.074 103.451C155.704 103.384 155.331 103.422 154.961 103.469C153.283 103.659 151.79 102.102 151.957 100.442C147.972 104.934 146.946 111.046 146.286 116.823C145.441 123.342 146.021 125.434 151.427 129.392C151.446 129.386 151.465 129.381 151.485 129.376ZM151.998 134.818C148.625 135.213 146.374 132.057 144.251 129.923C141.751 127.351 140.744 123.739 141.157 120.213C141.862 111.93 143.225 102.818 149.359 96.6859C151.524 94.254 156.9 94.3072 157.531 98.0616C164.541 100.276 163.389 112.612 162.676 118.424C161.877 123.295 157.745 134.555 152.017 134.813L151.998 134.818Z" fill="#223F61"/>
<path d="M161.866 118.299C160.21 118.224 159.423 116.364 160.389 115.06C163.128 111.367 167.663 106.998 170.997 112.69C171.657 113.455 171.615 114.615 170.855 115.295C169.035 116.734 167.813 114.68 167.009 113.259C165.566 113.749 164.478 114.982 163.444 116.034C163.969 117.105 163.027 118.382 161.878 118.306L161.866 118.299Z" fill="#223F61"/>
<path d="M177.719 133.262C179.495 132.59 180.194 130.478 181.225 129.032C183.014 125.811 184.345 122.35 185.289 118.795C186.781 113.728 187.169 108.252 184.564 103.462C184.383 103.407 184.208 103.33 184.053 103.216C183.535 103.292 182.978 103.224 182.477 102.975C181.775 102.635 181.317 102.043 181.107 101.374C176.687 103.891 174.802 114.105 173.897 118.891C172.61 125.073 172.083 128.91 177.475 133.317C177.562 133.293 177.639 133.273 177.728 133.259L177.719 133.262ZM177.847 138.734C174.672 138.941 172.44 136.091 170.842 133.713C168.745 130.827 167.712 127.273 168.336 123.722C169.606 117.088 173.02 95.5559 182.486 97.5485C186.034 94.5192 189.104 99.2672 190.207 102.306C194.423 110.991 191.254 121.051 187.474 129.329C185.35 133.271 182.906 138.417 177.849 138.744L177.847 138.734Z" fill="#223F61"/>
<path d="M124.417 104.99C121.465 105.138 120.81 100.945 123.717 100.24C127.101 99.3867 130 97.3383 133.132 95.8488C135.855 94.6135 138.455 93.1109 140.974 91.4956C145.483 88.965 149.249 85.4737 153 81.9658C159.739 76.1994 165.78 69.4085 169.224 61.1488C169.634 60.1282 170.044 59.1076 170.401 58.0806C170.547 57.6586 170.908 57.3446 171.376 57.3127C172.003 57.2589 172.494 57.7384 172.588 58.3239C171.002 63.4267 168.45 68.436 165.545 72.9805C161.021 79.6763 155.243 85.3204 149.546 90.9218C144.652 94.9942 139.153 98.2759 133.5 101.174C130.596 102.665 127.73 104.643 124.417 104.99Z" fill="#223F61"/>
<path d="M204.768 98.1535C205.414 99.0575 205.576 100.246 205.052 101.307C204.832 101.759 204.498 102.138 204.11 102.429C203.775 102.104 203.571 101.651 203.604 101.156C203.56 100.102 203.832 98.6005 204.768 98.1535Z" fill="#223F61"/>
<path d="M138.117 201.061C134.161 201.943 133.232 196.147 137.403 196.336C141.714 189.966 143.986 182.475 144.828 174.9C143.113 172.823 146.963 169.878 147.933 172.849C148.81 177.831 143.098 199.637 138.115 201.052L138.117 201.061Z" fill="#223F61"/>
<path d="M179.994 207.007C176.261 207.756 172.368 208.217 168.629 208.751C163.476 209.456 158.127 210.431 153.037 208.894C149.435 207.579 146.066 206.089 142.422 205.003C140.758 204.434 139.172 203.73 137.678 202.825C136.88 202.707 136.119 202.103 135.89 201.326C135.888 197.6 140.591 200.752 142.476 201.066C146.392 201.965 150.226 203.103 154.033 204.373C156.929 205.1 159.923 204.837 162.836 204.39C168.159 203.432 173.543 202.738 178.811 201.536C182.382 200.799 183.575 206.153 179.992 206.997L179.994 207.007Z" fill="#223F61"/>
<path d="M181.489 207.062C178.941 207.402 176.942 203.837 178.188 201.724C178.632 196.802 177.753 191.81 177.301 186.869C176.885 181.246 176.755 175.69 176.257 170.11C176.461 168.316 178.921 169.387 178.212 170.84C179.03 178.933 179.903 186.96 181.77 194.835C182.049 196.303 182.178 197.831 182.756 199.219C183.174 199.697 183.381 200.315 183.434 200.942C183.772 203.367 184.889 206.381 181.489 207.062Z" fill="#223F61"/>
<path d="M89.4274 234.016C86.9817 233.387 86.8273 230.757 88.117 228.922C89.1209 227.411 90.5308 226.258 91.5051 224.714C94.4231 220.839 98.4768 217.881 102.288 215.103C107.831 211.209 112.738 206.76 118.473 203.395C122.157 201.685 134.829 195.306 137.785 198.697C138.963 200.432 136.447 202.44 135.032 200.944C130.238 201.481 125.466 203.958 121.286 205.976C116.993 208.387 113.452 211.869 109.574 214.863C104.176 219.297 98.0912 223.098 94.4247 229.13C94.4244 230.6 92.9743 231.37 92.4392 232.621C91.8479 233.7 90.6302 234.295 89.4299 234.026L89.4274 234.016Z" fill="#223F61"/>
<path d="M210.691 222.783C208.517 220.652 205.867 219.104 203.659 217.003C201.241 214.927 199.449 212.249 196.983 210.228C193.119 207.545 188.353 206.873 183.915 205.72C181.488 207.404 179.007 203.006 182.062 202.158C183.782 201.895 185.53 202.39 187.216 202.736C191.04 203.681 195.057 204.304 198.5 206.302C201.871 208.341 204.123 211.693 207.228 214.051C209.126 215.614 211.292 216.825 213.195 218.366C213.176 218.413 213.155 218.449 213.136 218.496C213.125 218.53 213.104 218.567 213.092 218.601C213.092 218.601 213.106 218.576 213.111 218.554C213.118 218.542 213.122 218.52 213.139 218.505C213.132 218.518 213.127 218.54 213.111 218.554C213.097 218.579 213.089 218.591 213.075 218.616C213.059 218.63 213.054 218.652 213.037 218.667C213.021 218.682 213.014 218.694 212.999 218.719C213.016 218.704 213.021 218.682 213.037 218.667C213.037 218.667 213.047 218.665 213.054 218.652C213.016 218.704 212.988 218.753 212.95 218.804C212.733 219.038 212.548 219.316 212.385 219.597C212.369 219.612 212.364 219.634 212.357 219.646C212.214 219.809 212.081 219.968 211.98 220.171C211.872 220.387 211.793 220.594 211.726 220.809C211.726 220.809 211.733 220.796 211.74 220.784C211.74 220.784 211.733 220.796 211.726 220.809C211.726 220.809 211.726 220.809 211.719 220.821C211.606 221.017 211.514 221.217 211.423 221.417C211.367 221.557 211.308 221.686 211.25 221.816C211.182 221.989 211.125 222.16 211.069 222.34C210.985 222.528 210.891 222.719 210.809 222.917C210.765 222.867 210.723 222.826 210.688 222.773L210.691 222.783Z" fill="#223F61"/>
<path d="M208.809 179.624C208.674 179.661 208.534 179.677 208.396 179.704C207.881 179.521 207.326 179.535 206.785 179.524C206.765 179.529 206.741 179.515 206.719 179.51C206.377 179.395 205.998 179.331 205.646 179.29C205.41 179.26 205.148 179.289 204.911 179.29C204.746 179.293 204.571 179.298 204.404 179.291C204.442 179.281 204.476 179.292 204.508 179.294C204.479 179.302 204.445 179.29 204.404 179.291C204.404 179.291 204.404 179.291 204.394 179.294C204.394 179.294 204.375 179.299 204.372 179.289C204.372 179.289 204.391 179.284 204.394 179.294C204.375 179.299 204.365 179.301 204.343 179.297C204.343 179.297 204.353 179.294 204.362 179.292C204.362 179.292 204.353 179.294 204.343 179.297C204.343 179.297 204.343 179.297 204.333 179.299C203.348 179.294 202.363 179.247 201.377 179.2C200.287 178.953 199.2 178.684 198.103 178.45C195.567 178.259 193.187 177.332 190.766 176.602C189.064 176.043 187.003 175.072 186.238 173.331C184.614 169.542 185.518 164.445 189.008 162.011C191.123 160.204 193.854 160.084 196.569 159.979C199.733 159.848 202.877 159.721 204.981 156.944C208.853 151.178 211.059 144.408 212.076 137.563C212.55 134.652 213.318 131.755 213.175 128.781C207.057 130.717 203.257 126.92 203.113 120.882C203.212 118.62 204.434 116.647 205.271 114.591C205.87 113.231 206.09 111.577 207.189 110.497C209.48 108.383 212.252 111.897 209.788 113.404C209.571 113.483 209.367 113.61 209.183 113.773C208.862 114.045 208.581 114.39 208.32 114.729C208.217 114.808 208.126 114.894 208.043 115.01C207.853 115.267 207.761 115.541 207.644 115.841C207.67 115.782 207.686 115.726 207.705 115.68C207.663 115.794 207.612 115.912 207.56 116.029C207.541 116.075 207.523 116.122 207.504 116.168C207.516 116.134 207.53 116.109 207.541 116.075C207.484 116.246 207.435 116.414 207.38 116.595C207.343 116.687 207.306 116.78 207.271 116.883C207.232 117.007 207.205 117.138 207.178 117.27C207.122 117.45 207.086 117.625 207.046 117.823C207.059 117.757 207.073 117.691 207.084 117.616C207.034 117.857 207.007 118.102 206.972 118.36C206.943 118.523 206.924 118.683 206.905 118.844C206.883 118.994 206.868 119.133 206.856 119.281C206.858 119.208 206.868 119.133 206.879 119.058C206.854 119.271 206.845 119.47 206.851 119.686C206.848 119.677 206.846 119.667 206.843 119.657C206.838 119.948 206.858 120.254 206.906 120.551C206.995 121.076 207.203 121.507 207.513 121.931C207.806 122.329 208.198 122.711 208.657 122.919C208.74 122.959 208.821 122.99 208.904 123.029C208.968 123.116 209.043 123.199 209.107 123.286C210.248 123.333 211.356 122.985 212.451 122.63C213.156 122.4 213.86 122.17 214.586 122.059C219.157 121.499 219.637 125.698 219.27 129.201C219.311 132.606 218.411 135.9 217.732 139.208C216.567 144.954 214.597 150.594 211.586 155.633C210.502 157.538 209.457 159.515 207.923 161.095C205.464 163.242 202.172 164.827 198.882 164.951C194.695 164.931 189.66 165.149 190.885 170.774C193.665 171.997 196.755 172.289 199.747 172.483C202.481 172.953 205.198 173.706 207.999 173.341C211.838 173.183 212.575 178.649 209.01 179.602C208.933 179.622 208.856 179.643 208.769 179.666L208.809 179.624Z" fill="#223F61"/>
<path d="M224.529 155.454C221.523 154.663 222.945 151.116 223.618 149.062C225.064 145.218 225.995 140.611 227.158 136.791C228.761 132.139 228.662 127.28 228.918 122.429C228.99 118.518 228.51 117.497 224.971 115.721C221.778 114.619 218.461 113.632 215.085 113.355C213.498 113.034 211.69 112.813 210.148 113.319C209.784 113.312 209.472 113.499 209.204 113.737C209.194 113.739 209.187 113.751 209.18 113.764C208.779 114.005 208.415 114.31 208.084 114.698L208.123 114.688C208.059 114.798 208.02 114.923 208.012 115.049C207.859 115.287 207.768 115.528 207.666 115.804C207.691 115.745 207.707 115.689 207.726 115.643C207.675 115.76 207.623 115.878 207.581 115.992C207.581 115.992 207.579 115.983 207.576 115.973C207.576 115.973 207.569 115.985 207.572 115.995C207.553 116.041 207.532 116.078 207.513 116.124C207.527 116.1 207.539 116.066 207.55 116.032C207.483 116.205 207.437 116.383 207.389 116.551C207.352 116.644 207.315 116.736 207.289 116.836C207.25 116.961 207.223 117.092 207.196 117.223C207.155 117.379 207.121 117.523 207.099 117.674C207.101 117.642 207.113 117.608 207.115 117.576C207.068 117.827 207.038 118.063 207.003 118.321C206.99 118.386 206.986 118.449 206.972 118.515C206.828 118.44 206.686 118.333 206.55 118.173C205.92 117.368 205.627 116.349 205.395 115.366C205.032 111.374 210.015 108.913 213.573 109.018C213.834 109.103 214.106 109.113 214.39 109.131C214.453 109.134 214.519 109.148 214.587 109.171C214.587 109.171 214.587 109.171 214.578 109.174C214.765 109.217 214.958 109.279 215.152 109.31C215.349 109.35 215.541 109.371 215.74 109.38C215.942 109.399 216.149 109.437 216.346 109.477C216.314 109.475 216.29 109.461 216.249 109.462C216.665 109.547 217.092 109.557 217.524 109.587C217.643 109.606 217.763 109.626 217.882 109.646C217.891 109.644 217.901 109.641 217.913 109.648C217.933 109.643 217.945 109.65 217.967 109.655C217.957 109.657 217.935 109.653 217.913 109.648C218.011 109.664 218.118 109.676 218.215 109.692C218.626 109.758 219.055 109.778 219.462 109.866C219.703 109.915 219.936 109.935 220.179 109.953C220.264 109.962 220.342 109.982 220.427 109.99C220.612 110.024 220.792 110.038 220.981 110.049C221.1 110.069 221.219 110.089 221.346 110.097C221.589 110.115 221.833 110.101 222.064 110.112C222.083 110.107 222.105 110.111 222.127 110.116C222.215 110.134 222.3 110.142 222.394 110.148C222.511 110.158 222.613 110.151 222.727 110.152C223.059 110.156 223.384 110.173 223.714 110.167C224.044 110.162 224.381 110.144 224.708 110.129C224.708 110.129 224.728 110.124 224.737 110.122C227.291 110.847 229.687 111.986 231.736 113.726C234.957 116.83 234.235 121.836 233.981 125.879C234.2 132.31 232.244 138.816 230.664 144.911C230.146 147.348 228.795 149.997 227.91 152.148C227.442 153.454 226.99 155.055 225.676 155.406C225.357 155.491 224.996 155.495 224.56 155.414L224.529 155.454Z" fill="#223F61"/>
<path d="M211.382 179.257C210.652 179.277 209.952 179.526 209.261 179.804C208.986 179.784 208.709 179.755 208.445 179.732C207.922 179.52 207.338 179.542 206.785 179.524C206.765 179.529 206.741 179.515 206.721 179.52C206.38 179.404 206 179.34 205.648 179.3C205.412 179.27 205.151 179.298 204.913 179.3C204.777 179.295 204.644 179.299 204.501 179.306C204.45 179.31 204.396 179.303 204.346 179.307C204.295 179.31 204.251 179.301 204.2 179.304C203.335 177.848 203.852 175.64 205.7 175.042C207.025 174.615 208.384 174.2 209.781 174.044C211.749 174.087 213.588 173.844 214.804 172.08C216.009 170.391 217.128 168.695 217.761 166.724C218.019 165.91 218.212 165.082 218.588 164.319C219.003 163.318 220.427 163.341 220.989 164.164C221.471 164.842 221.181 165.541 220.921 166.231C220.548 167.159 220.504 168.196 220.165 169.135C218.911 173 217.111 177.922 212.928 179.041C212.445 179.17 211.937 179.244 211.384 179.267L211.382 179.257Z" fill="#223F61"/>
<path d="M220.35 171.104C219.254 170.838 218.617 169.425 218.334 168.559C217.728 167.065 217.1 165.607 216.496 164.123C215.678 161.992 214.263 160.145 213.565 157.961C212.389 154.104 213.553 147.075 219.05 149.207C221.051 149.955 222.392 151.719 223.859 153.18C224.549 153.823 225.192 154.448 225.443 155.385C226.315 157.833 222.505 158.024 223.036 155.636C221.273 154.616 219.872 152.631 217.753 152.411C216.965 156.275 219.938 159.031 221.361 162.304C222.141 163.98 222.92 165.656 223.637 167.369C223.922 168.048 224.023 168.735 223.768 169.445C223.317 170.818 221.707 171.611 220.34 171.107L220.35 171.104Z" fill="#223F61"/>
<path d="M223.334 173.515C221.362 173.805 218.024 173.32 218.497 170.637C218.764 169.354 220.193 168.465 221.453 168.957C224.364 170.166 226.804 167.909 226.252 164.878C225.676 161.834 224.269 158.97 222.614 156.421C221.776 154.409 225.044 153.815 225.249 155.862C228.041 159.721 230.629 165.799 228.768 169.796C228.758 169.798 228.744 169.823 228.737 169.835C228.682 169.901 228.652 169.982 228.634 170.069C227.848 171.542 226.411 172.713 224.093 173.333C223.851 173.398 223.6 173.465 223.332 173.506L223.334 173.515Z" fill="#223F61"/>
<path d="M206.577 260.63C199.644 259.979 195.78 252.575 197.056 246.158C198.314 235.688 202.366 225.909 206.86 216.468C208.204 213.055 209.804 209.75 211.031 206.285C212.082 203.323 212.587 200.218 213.522 197.214C215.7 190.183 218.717 183.269 220.04 176.021C220.188 175.029 220.184 174.006 220.398 173.027C220.451 172.837 220.647 172.681 220.841 172.671C221.161 172.627 221.473 172.864 221.461 173.209C221.533 173.748 222.53 174.962 221.479 175.057C221.377 183.655 219.844 192.17 218.113 200.562C217.602 204.497 216.968 208.435 215.498 212.151C214.836 214.129 214.106 216.083 213.362 218.022C213.319 218.095 213.286 218.166 213.254 218.237C213.254 218.237 213.254 218.237 213.256 218.246L213.246 218.249C213.228 218.295 213.216 218.33 213.195 218.366C213.176 218.413 213.155 218.449 213.136 218.496C213.125 218.53 213.104 218.567 213.092 218.601C213.092 218.601 213.118 218.542 213.139 218.505C213.118 218.542 213.106 218.576 213.085 218.613C213.064 218.65 213.03 218.679 213.009 218.716C213.023 218.692 213.047 218.665 213.064 218.65C213.035 218.699 212.997 218.75 212.96 218.802C212.743 219.036 212.558 219.313 212.393 219.585C212.378 219.609 212.371 219.622 212.364 219.634C212.221 219.796 212.088 219.956 211.987 220.159C211.879 220.374 211.8 220.582 211.733 220.796C211.733 220.796 211.733 220.796 211.726 220.809C211.726 220.809 211.726 220.809 211.733 220.796C211.62 220.992 211.528 221.193 211.44 221.403C211.381 221.532 211.323 221.662 211.267 221.801C211.199 221.974 211.141 222.145 211.086 222.325C210.939 222.665 210.767 222.99 210.666 223.349C210.431 224.136 210.282 224.931 210.094 225.737C209.985 226.222 209.867 226.709 209.749 227.196C207.994 231.744 206.405 236.33 205.425 241.146C205.069 244.461 203.651 247.945 204.823 251.203C205.682 253.178 208.713 254.448 210.311 252.644C211.191 251.716 212.027 250.737 212.789 249.715C212.909 249.662 213.027 249.6 213.132 249.53C213.468 249.275 213.68 248.907 213.846 248.521C213.914 248.348 213.976 248.155 214.019 247.968C214.043 247.941 214.054 247.907 214.078 247.88C214.088 247.877 214.105 247.862 214.112 247.85C214.303 247.675 214.414 247.469 214.553 247.256C214.686 247.055 214.794 246.84 214.88 246.62C214.88 246.62 214.876 246.642 214.866 246.644C214.885 246.598 214.906 246.561 214.924 246.515C214.962 246.463 215 246.412 215.029 246.363C215.112 246.247 215.197 246.142 215.268 246.019C215.431 245.738 215.55 245.447 215.676 245.144C215.643 245.215 215.62 245.283 215.587 245.354C215.734 245.015 215.838 244.666 215.973 244.319C216.104 244.036 216.221 243.736 216.32 243.45C217.202 241.869 218.378 240.695 220.502 241.359C222.11 241.913 223.15 243.829 222.502 245.472C221.345 248.462 220.02 251.404 218.081 253.983C216.236 256.878 213.612 259.608 210.356 260.479C209.187 260.791 207.925 260.87 206.594 260.615L206.577 260.63Z" fill="#223F61"/>
<path d="M214.361 247.545C214.421 247.457 214.48 247.369 214.537 247.271C214.669 247.07 214.767 246.857 214.863 246.635C214.863 246.635 214.859 246.657 214.849 246.659C214.868 246.613 214.889 246.576 214.908 246.53C214.946 246.478 214.974 246.429 215.012 246.377C215.095 246.262 215.181 246.156 215.251 246.034C215.414 245.752 215.533 245.462 215.659 245.159C215.626 245.23 215.603 245.298 215.57 245.369C215.718 245.029 215.821 244.681 215.956 244.334C216.183 243.828 216.357 243.316 216.503 242.78C216.629 242.281 216.71 241.773 216.833 241.264C216.99 240.766 217.156 240.266 217.245 239.746C217.302 239.42 217.348 239.087 217.403 238.751C217.516 238.203 217.652 237.67 217.765 237.122C217.837 236.772 217.887 236.417 217.937 236.062C217.984 235.697 218.063 235.335 218.12 234.967C218.16 234.729 218.2 234.491 218.259 234.247C218.317 234.076 218.375 233.906 218.43 233.725C218.536 233.386 218.686 233.056 218.78 232.711C218.992 231.919 219.074 231.1 219.136 230.286C219.256 229.809 219.389 229.339 219.51 228.861C219.578 228.688 219.645 228.515 219.703 228.344C219.938 227.712 220.182 227.077 220.383 226.433C220.641 225.619 220.937 224.712 220.869 223.84C221.486 221.615 222.133 219.392 222.84 217.195C223.919 213.335 224.283 209.315 225.078 205.397C226.061 200.051 227.369 194.723 227.629 189.27C227.783 186.052 228.065 182.809 227.62 179.595C227.349 177.731 226.851 175.908 226.569 174.038C226.403 172.954 226.228 171.717 226.999 170.807C227.478 170.275 228.049 170.05 228.6 170.058C228.591 170.143 228.593 170.225 228.633 170.297C228.683 170.408 228.757 170.492 228.846 170.551C228.93 170.673 229.005 170.798 229.08 170.923C229.074 170.904 229.06 170.887 229.045 170.87C229.19 171.142 229.325 171.417 229.454 171.703C229.823 172.619 230.098 173.57 230.373 174.521C232.956 185.693 232.065 197.266 230.801 208.566C230.583 214.214 229.474 219.707 228.032 225.154C227.363 228.925 226.332 232.617 225.444 236.342C224.702 240.536 222.484 247.651 217.975 248.981C216.537 249.334 215.151 248.638 214.327 247.534L214.361 247.545Z" fill="#223F61"/>
<path d="M207.046 101.561C197.935 101.554 191.394 91.8025 186.506 85.2115C183.431 81.9966 180.977 78.3568 179.04 74.3618C177.569 71.3391 175.025 68.5618 174.594 65.1681C174.661 64.0633 175.773 63.5382 176.726 63.3456C178.586 62.755 179.823 65.2915 178.201 66.3464C180.165 70.1688 182.569 73.7803 184.951 77.3461C186.947 79.8557 189.548 81.8 191.587 84.2774C194.889 87.9179 198.202 91.5971 202.639 93.868C204.155 94.7772 205.961 95.2984 207.668 94.6351C208.756 94.4064 209.866 94.8031 210.618 95.5646C210.864 96.0579 211.133 96.5241 211.439 96.9703C212.096 99.1961 210.311 100.843 208.292 101.383C207.877 101.494 207.448 101.557 207.039 101.573L207.046 101.561Z" fill="#223F61"/>
<path d="M98.6701 209.197C98.3436 209.253 98.0196 209.319 97.6931 209.375C97.6931 209.375 97.7124 209.37 97.722 209.367C97.7124 209.37 97.6931 209.375 97.6834 209.378C97.6834 209.378 97.6834 209.378 97.6737 209.38C97.6641 209.383 97.6448 209.388 97.6325 209.381C98.2013 209.301 98.7667 209.171 99.3219 209.002C99.083 209.076 98.844 209.15 98.6147 209.222C98.6437 209.214 98.663 209.209 98.692 209.201L98.6701 209.197Z" fill="#223F61"/>
<path d="M212.597 100.335C212.597 100.449 212.594 100.554 212.583 100.67C212.584 100.556 212.587 100.452 212.597 100.335Z" fill="#223F61"/>
<path d="M218.75 107.24C218.75 107.24 218.731 107.287 218.727 107.309C218.727 107.309 218.727 107.309 218.736 107.306C218.675 107.385 218.622 107.461 218.563 107.549C218.629 107.449 218.696 107.348 218.743 107.253L218.75 107.24Z" fill="#223F61"/>
<path d="M221.107 113.773C219.33 113.979 217.956 112.442 216.633 111.481C215.708 110.807 214.972 110.031 214.391 109.172C214.444 109.178 214.498 109.185 214.554 109.201C214.741 109.244 214.934 109.306 215.128 109.337C215.316 109.38 215.518 109.399 215.707 109.41C215.921 109.436 216.115 109.466 216.322 109.504C216.291 109.502 216.266 109.488 216.225 109.489C216.641 109.574 217.068 109.584 217.491 109.616C217.61 109.636 217.729 109.656 217.848 109.676C217.88 109.678 217.902 109.682 217.936 109.694C218.021 109.702 218.109 109.72 218.184 109.731C218.598 109.807 219.025 109.817 219.431 109.905C219.672 109.954 219.905 109.975 220.148 109.993C220.226 110.013 220.311 110.021 220.396 110.03C220.571 110.066 220.761 110.077 220.95 110.089C221.069 110.109 221.189 110.128 221.315 110.136C221.558 110.154 221.802 110.14 222.052 110.146C222.062 110.143 222.072 110.141 222.094 110.145C222.191 110.161 222.276 110.169 222.361 110.177C222.475 110.178 222.579 110.181 222.693 110.182C222.817 110.18 222.934 110.19 223.057 110.188C223.615 111.54 222.948 113.302 221.421 113.71C221.325 113.736 221.228 113.762 221.127 113.768L221.107 113.773Z" fill="#223F61"/>
<path d="M148.038 117.452C142.883 118.188 145.123 110.074 146.679 107.609C147.297 106.667 148.229 105.932 149.267 105.519C152.153 104.851 152.246 108.221 151.949 110.206C153.22 113.178 151.545 117.29 148.035 117.442L148.038 117.452Z" fill="#223F61"/>
<path d="M173.456 119.641C171.725 116.884 173.226 110.303 175.785 108.377C177.15 107.401 179.056 107.833 179.851 109.298C181.408 112.101 179.615 118.48 176.842 120.112C175.779 120.779 174.164 120.859 173.446 119.643L173.456 119.641Z" fill="#223F61"/>
<path d="M219.119 187.83C216.109 187.258 218.681 181.819 218.682 179.769C218.727 177.925 219.04 176.465 219.361 174.722C219.404 173.955 219.399 173.315 219.747 172.642C219.407 171.719 220.659 170.866 221.348 171.624C222.11 172.383 222.081 173.55 222.323 174.458C222.653 177.703 222.236 180.982 221.377 184.121C221.082 185.535 221.162 188.039 219.119 187.83Z" fill="#223F61"/>
<path d="M230.13 184.182C229.271 184.298 228.356 183.663 228.28 182.761C227.895 179.345 227.842 175.819 227.464 172.432C227.315 171.602 226.987 170.996 226.771 170.226C226.524 168.76 228.972 168.468 228.515 170.091C230.31 173.938 230.838 178.237 231.55 182.332C231.686 183.228 231.001 184.073 230.13 184.182Z" fill="#223F61"/>
<path d="M163.73 178.542C162.714 178.461 161.752 178.812 160.776 179.031C160.068 180.1 158.583 178.727 158.999 177.767C159.161 177.403 159.479 177.163 159.861 177.04C161.113 176.612 162.359 176.165 163.689 176.027C165.561 175.827 165.602 178.693 163.72 178.544L163.73 178.542Z" fill="#223F61"/>
<path d="M159.171 178.912C158.602 178.681 158.416 177.871 158.616 177.342C158.758 176.828 159.514 176.75 159.747 177.236C161.761 176.211 163.829 175.275 165.795 174.149C166.416 173.528 167.468 173.36 168.056 174.124C169.436 176.654 164.989 177.097 163.468 177.835C162.647 178.21 161.734 178.278 160.877 178.559C160.345 178.774 159.759 179.138 159.164 178.924L159.171 178.912Z" fill="#223F61"/>
<path d="M158.833 181.714C157.49 182.032 156.775 180.132 158.342 180.034C160.65 179.645 162.496 177.878 164.33 176.528C164.835 176.134 165.587 176.234 165.978 176.729C167.637 178.677 160.298 181.581 158.83 181.704L158.833 181.714Z" fill="#223F61"/>
<path d="M163.064 178.295C162.08 178.527 161.091 178.429 160.122 178.171C159.573 178.173 158.999 178.078 158.591 177.711C157.824 176.974 158.781 175.714 159.704 176.223C160.185 175.97 160.704 175.976 161.237 175.916C163.746 175.349 166.124 174.258 168.312 172.917C168.875 172.58 169.626 172.721 170.033 173.234C171.708 175.591 164.749 177.979 163.073 178.293L163.064 178.295Z" fill="#223F61"/>
<path d="M95.2893 217.574C73.7869 202.155 70.1479 184.403 84.1287 161.856C88.0587 156.075 92.7995 150.926 97.0415 145.382C100.006 141.06 102.105 135.788 102.164 130.587C101.776 126.736 99.9282 123.193 99.724 119.294C99.1864 108.921 95.3049 98.4684 98.3005 88.1857C102.289 75.2671 123.843 58.6665 135.581 52.1225C143.824 47.5687 153.018 43.8581 162.591 45.2838C164.398 45.7322 168.236 44.9129 168.048 47.6545C167.496 50.2347 163.549 48.4434 161.739 48.565C155.135 47.598 148.395 49.4106 142.512 52.1843C129.362 58.1327 110.387 73.1122 103.14 85.5357C98.7454 93.76 101.515 103.267 102.765 111.928C103.117 114.95 103.341 118.42 103.807 121.287C104.221 123.878 105.33 126.283 105.769 128.857C106.498 134.717 104.236 140.622 101.461 145.691C96.5262 153.211 89.9162 159.615 85.5824 167.565C78.382 182.253 77.7342 195.2 90.3237 207.133C92.8755 209.514 95.6513 211.65 98.391 213.805C99.428 214.625 99.5463 216.229 98.716 217.227C97.8645 218.263 96.343 218.379 95.2938 217.552L95.2893 217.574Z" fill="#223F61"/>
<path d="M219.239 113.755C216.896 109.754 216.766 105.007 216.174 100.549C215.998 95.3994 217.687 90.4138 217.822 85.2643C219.36 73.8289 215.34 65.1425 204.855 59.9962C200.245 57.5437 195.516 54.916 190.471 53.7393C186.321 53.2028 182.104 51.639 177.951 52.2112C176.488 52.4679 175.358 52.8113 174.065 53.3539C173.525 53.581 172.873 53.3103 172.605 52.8125C172.153 52.0121 172.851 51.0596 173.705 50.9656C177.502 49.3296 181.66 49.3977 185.635 50.2086C193.199 50.7016 200.156 53.6859 206.763 57.2192C213.619 60.4477 219.205 65.931 221.202 73.3987C223.393 81.3629 221.466 89.7556 220.548 97.7849C220.421 101.452 221.263 105.14 222.019 108.706C222.522 110.703 224.927 113.156 222.345 114.685C221.27 115.272 219.805 114.867 219.239 113.755Z" fill="#223F61"/>
<path d="M159.3 153.071C156.622 151.686 154.539 149.086 153.49 146.282C152.74 143.17 157.658 143.366 157.201 146.263C158.346 147.954 160.502 150.752 162.799 149.703C163.273 149.463 163.64 149.054 163.914 148.608C164.538 147.303 166.383 146.923 167.451 147.901C168.585 148.85 168.434 150.723 167.21 151.526C165.17 153.614 161.952 154.547 159.3 153.071Z" fill="#223F61"/>
</g>
<mask id="mask2_1_198" style="mask-type:luminance" maskUnits="userSpaceOnUse" x="0" y="31" width="108" height="98">
<path d="M87.5835 31.107L0 54.5244L19.8994 128.95L107.483 105.533L87.5835 31.107Z" fill="white"/>
</mask>
<g mask="url(#mask2_1_198)">
<path d="M11.7563 90.364C10.4583 90.3487 9.54029 89.2381 9.84938 88.11C10.3939 85.5008 10.9165 82.8871 11.4926 80.2799C12.6803 75.1593 13.676 70.0176 14.2008 64.857C14.4729 62.3517 14.7012 59.8374 14.8027 57.4294C15.015 56.0167 14.301 53.7336 16.2698 53.083C18.0833 52.4325 19.3755 54.3229 17.6575 55.3308C17.6046 65.0441 16.067 74.7403 14.3277 84.418C14.1398 85.6897 14.0369 86.9697 14.1666 88.2289C14.2872 89.3767 13.0085 90.4018 11.7589 90.3736L11.7563 90.364Z" fill="#223F61"/>
<path d="M90.4678 54.2058C89.2261 54.6724 88.1912 54.1313 87.0092 54.0851C79.708 53.646 72.2879 54.5431 64.9631 54.2864C57.7568 54.1636 50.4982 54.8518 43.2894 54.7194C34.9011 54.5503 26.3552 54.8375 18.0062 54.6993C17.0692 55.9953 14.7777 55.5936 14.635 54.1308C14.5652 50.8888 21.6104 51.9966 23.9261 51.7915C32.352 51.4433 40.7512 51.3817 49.1657 51.2229C59.0885 50.5883 68.9752 50.8639 78.8968 50.3021C81.8965 50.1005 84.9027 50.0006 87.8724 50.1899C89.535 50.2526 91.9524 50.041 92.1823 51.9463C92.2995 52.8879 91.5672 53.9429 90.4871 54.2006L90.4678 54.2058Z" fill="#223F61"/>
<path d="M87.1489 91.1156C86.0064 90.5205 85.5506 88.893 86.2462 87.8168C86.3542 86.5561 86.4429 85.3006 86.5413 84.0425C87.1184 77.0253 88.0162 70.0466 88.8554 63.0421C89.0652 60.7295 89.2531 58.4123 89.3076 56.0997C89.5 54.8062 88.5126 53.0103 90.232 52.24C91.7324 51.58 93.2422 53.2777 92.4519 54.5034C92.5584 61.638 91.3824 68.8153 91.0573 75.9618C90.8315 80.2662 90.5837 84.5661 90.593 88.8594C90.9129 90.4818 88.7585 91.9481 87.1515 91.1253L87.1489 91.1156Z" fill="#223F61"/>
<path d="M59.2075 93.3486C54.6306 93.0714 49.9696 93.2929 45.383 93.0183C41.0502 92.6862 36.7276 92.2375 32.3749 92.0245C25.7423 91.531 18.7182 92.1669 12.3774 90.5188C10.7146 91.1911 9.47752 88.8098 11.4638 88.3409C12.9704 88.2072 14.3816 88.9167 15.851 89.0311C20.2573 89.5609 24.9266 89.2544 29.363 89.3932C37.0935 89.3862 44.6953 90.4073 52.4661 90.0479C55.0235 90.0887 57.6256 89.7553 60.1571 89.6995C62.5795 90.2422 61.7623 93.5351 59.2171 93.3461L59.2075 93.3486Z" fill="#223F61"/>
<path d="M79.5662 112.117C67.0842 112.897 57.659 102.23 60.2904 91.4754C60.4852 90.9264 61.2103 90.6187 61.7702 90.8934C62.6047 91.3431 62.0663 92.3876 62.1994 93.118C62.2947 101.798 69.4993 109.115 79.7027 108.137C82.6349 108.108 82.5324 111.945 79.5662 112.117Z" fill="#223F61"/>
<path d="M80.3718 110.794C79.8082 110.893 79.2554 110.761 78.8475 110.435C77.7892 109.497 76.9246 108.393 75.8972 107.415C72.1927 103.665 69.1297 98.6351 70.3475 93.2788C70.826 91.2359 73.8599 87.1744 76.1167 89.6143C76.5945 90.356 76.2996 91.4597 75.3878 91.9208C73.2165 93.2467 73.5822 95.892 73.9262 97.7978C74.6193 101.784 77.6476 104.825 80.3499 107.808C82.6874 107.608 82.641 110.57 80.3595 110.787L80.3718 110.794Z" fill="#223F61"/>
<path d="M88.2038 93.7837C86.2495 93.8301 84.5123 93.0627 82.6422 92.7657C80.544 92.4676 78.39 92.6191 76.2437 92.6443C73.3355 94.8918 70.5279 90.3529 74.0113 89.1731C78.4982 88.6877 83.0982 88.7414 87.358 89.8072C88.1504 89.9059 89.0128 89.6857 89.6611 90.1748C91.3269 91.1786 90.2413 93.7772 88.1942 93.7863L88.2038 93.7837Z" fill="#223F61"/>
<path d="M33.3515 71.5577C32.1825 70.8248 33.131 68.2939 34.1895 67.6072C35.1186 67.0172 35.9238 67.8992 35.5127 68.7233C36.7392 69.71 35.014 72.5106 33.3515 71.5577Z" fill="#223F61"/>
<path d="M33.8098 73.0397C32.0583 73.0318 30.7207 71.4745 31.3361 69.9435C31.8268 68.6427 33.3612 66.7936 35.0346 67.5158C35.5597 67.7377 35.5633 68.2543 35.8431 68.6039C38.4149 70.1315 36.8684 73.1742 33.8195 73.0371L33.8098 73.0397Z" fill="#223F61"/>
<path d="M48.8034 74.2582C43.3648 72.3067 49.765 64.3433 52.6927 69.2537C56.0191 71.0868 51.8896 75.348 48.8034 74.2582Z" fill="#223F61"/>
<path d="M69.4652 74.1061C66.738 74.3591 65.9385 71.1363 67.4878 69.4591C68.4205 68.3403 70.3269 67.8823 71.4554 68.8124C73.5971 70.5895 72.883 73.9582 69.4556 74.1087L69.4652 74.1061Z" fill="#223F61"/>
<path d="M34.6802 72.2687C34.0725 71.8929 34.0591 71.0684 34.6018 70.5817C34.9514 70.3019 34.9311 69.8001 34.6166 69.5529C34.4736 69.5601 34.3461 69.6253 34.2186 69.6904C34.5697 70.6938 33.0161 70.9228 32.7965 69.9464C32.6148 68.9185 34.0338 67.8766 35.1379 67.9023C36.6749 67.9985 37.5075 69.5253 37.1547 70.7997C36.8964 71.7693 35.8099 72.9707 34.6802 72.2687Z" fill="#223F61"/>
</g>
</g>
</g>
<defs>
<clipPath id="clip0_1_198">
<rect width="211.09" height="253.56" fill="white" transform="translate(0 54.5244) rotate(-14.9692)"/>
</clipPath>
</defs>
</svg>
