<svg width="295" height="262" viewBox="0 0 295 262" fill="none" xmlns="http://www.w3.org/2000/svg">
<g clip-path="url(#clip0_1_151)">
<mask id="mask0_1_151" style="mask-type:luminance" maskUnits="userSpaceOnUse" x="0" y="0" width="295" height="262">
<path d="M294.69 0H0V261.72H294.69V0Z" fill="white"/>
</mask>
<g mask="url(#mask0_1_151)">
<path d="M138.44 109.6C135.69 109.38 133.57 107.41 131.33 106.01C128.99 104.6 126.78 103.01 124.54 101.44C124.55 101.44 124.56 101.46 124.58 101.47C124.59 101.47 124.6 101.49 124.62 101.5C118 97.36 113.74 90.42 111.08 83.25C109.39 78.21 109.11 72.85 108.45 67.61C107.75 62.31 108.49 56.93 108.52 51.6C108.6 49.16 108.69 46.72 108.9 44.29C108.97 43.61 109.05 42.9 109.47 42.34C110.25 41.4 112.26 41.61 112.26 43.05C112.26 43.76 111.72 44.25 111.07 44.33C110.33 53.36 110.75 62.5 111.94 71.47C112.51 75.46 113.02 79.52 114.77 83.2C117.08 87.88 119.8 92.18 123.64 95.76C126.81 98.09 130.2 100.15 133.54 102.23C135.34 103.17 136.93 104.99 139.02 105.14C139.31 105.08 139.51 104.84 139.76 104.69C141.27 103.49 143.63 104.83 143.31 106.75C142.84 108.77 140.36 109.74 138.46 109.62L138.44 109.6Z" fill="#223F61"/>
<path d="M136.55 108.57C125.09 103.29 116.28 92.68 112.12 80.87C108.53 71.74 108.53 61.67 108.94 52C109.23 50.03 108.98 41.01 111.97 41.99C112.31 42.26 112.38 42.76 112.11 43.1C110.92 44.39 111.05 46.43 111.15 47.99C111.32 51.84 111.91 55.63 112.25 59.45C112.49 77.67 120.85 92.49 136.33 102.09C137.35 102.68 138.36 103.35 139.52 103.62C141.03 103.62 142.6 104.33 142.8 105.99C143.15 109.37 138.84 109.58 136.56 108.55L136.55 108.57Z" fill="#223F61"/>
<path d="M139.83 108.09C139.06 107.01 140.26 106.25 141.09 105.73C142.51 105.01 143.68 103.91 144.98 103.02C147.63 100.66 150.41 98.5 153.22 96.33C155.36 94.2 157.48 91.77 159.52 89.6C162.19 86.5 164.56 83.13 166.6 79.59C168.93 74.98 169.97 70.11 171.63 65.27C173.46 60.66 174.37 55.74 174.62 50.8C174.82 48.73 174.57 46.49 175.21 44.5C176.4 42.6 179.18 44.59 177.38 46.18C177.06 51.68 176.94 57.22 175.81 62.63C174.19 68.08 172.6 73.54 170.48 78.82C167.2 85.75 161.87 91.4 156.65 96.91C154.48 99.35 151.47 100.81 149.07 102.87C147.01 104.85 144.57 106.41 142.12 107.85C141.47 108.39 140.49 108.94 139.84 108.09H139.83Z" fill="#223F61"/>
<path d="M109.24 41.9C108.71 40.31 109.86 38.68 111.44 38.35C112.03 38.18 112.67 38.33 113.23 38.05C116.1 36.6 119.04 35.3 121.7 33.46C123.93 31.91 125.71 29.84 127.61 27.91C131.95 23.37 135.92 18.48 139.89 13.62C141.63 10.46 143.55 7.28 144.79 3.9C144.92 3.28 145.6 2.88 146.2 2.97C147.53 3.13 147.73 5.26 146.76 5.95C144.98 9.22 143.9 12.77 142.31 16.12C139.71 20.21 136.45 24.41 133.34 28.03C130.23 31.39 127.64 35.05 124 37.8C121.88 39.25 119.8 40.85 117.41 41.84C115.88 42.73 114.17 43.7 112.36 43.39C111.11 43.57 109.59 43.39 109.22 41.91L109.24 41.9Z" fill="#223F61"/>
<path d="M180.76 48.71C172.28 46.98 167.91 41.33 162.76 35.04C159.75 31.22 156.91 27.2 154.58 22.93C152.73 19.16 151.06 15.3 149.08 11.59C148.46 9.78 147.38 7.86 147.55 5.92C148.13 4.17 150.95 5.19 150.05 6.91C150.91 10.51 153.57 13.11 155.27 16.29C159.85 24.67 166.47 31.28 172.8 38.2C175.48 40.69 178.81 42.15 182.25 43.28C185.24 44.6 184.02 49.14 180.76 48.72V48.71Z" fill="#223F61"/>
<path d="M118.01 121.61C117.13 120.48 117.43 118.68 118.72 117.99C119.12 117.78 119.49 117.53 119.84 117.23C121.5 115.71 122.48 113.62 123.31 111.55C124.2 108.3 125.23 104.99 125.43 101.66C125.42 101.15 125.79 100.67 126.24 100.48C127.68 99.86 128.87 102.02 127.95 103.09C127.18 108.14 127.34 113.49 124.79 118.07C123.56 120.27 120.59 124.42 118.02 121.6L118.01 121.61Z" fill="#223F61"/>
<path d="M143.78 130.87C138.65 130.29 133.33 130.6 128.47 128.6C124.57 127.04 118.47 124.54 118.95 119.47C119.53 117.74 122.46 119.15 121.4 120.65C121.46 120.81 121.72 121.19 121.78 121.24C126.93 125.03 133.83 125.39 140.03 125.37C143.22 125.23 146.51 126.01 149.63 125.12C151.47 124.14 153.68 123.9 154.7 126.11C156.23 131.49 147.13 131.36 143.79 130.87H143.78Z" fill="#223F61"/>
<path d="M154.56 128.31C153.26 128.26 152.13 127.36 151.95 126.04C151.79 124.82 152.48 123.76 153.55 123.27C151.69 117.77 151.18 112 151.56 106.23C151.76 104.17 151.17 101.89 151.99 99.95C153.29 97.94 155.92 101.1 154.19 102.36C154.36 107.19 154.13 111.98 155.91 116.5C156.73 118.73 157.85 120.84 158.92 122.97C159.33 123.48 159.56 124.12 159.56 124.78C159.53 127.21 156.61 128.29 154.55 128.32L154.56 128.31Z" fill="#223F61"/>
<path d="M132.85 69.06C135.03 68.3 135.99 65.59 136.9 63.64C139.6 58.53 139.58 52.46 140.43 47.07C140.79 44.54 140.78 41.97 138.65 40.21C137.91 39.99 136.97 40.11 136.45 39.44C130.98 43.53 129.5 50.6 128.46 56.96C128.18 60.76 128.27 64.71 129.67 68.28C130.51 69.42 131.65 69.03 132.86 69.05L132.85 69.06ZM131.42 73.31C129.09 73.56 126.93 72.01 125.92 69.99C125.3 67.92 124.63 65.8 124.66 63.62C124.04 57.69 125.4 51.67 127.67 46.21C129.04 43.29 135.15 34.53 138.81 36.73C140.67 36.99 142.21 38.66 142.87 40.33C144.88 43.21 144.19 47.25 143.88 50.5C143.8 55.9 142.99 61.18 140.52 66.02C138.86 69.8 136.03 73.96 131.41 73.31H131.42Z" fill="#223F61"/>
<path d="M154.07 72.02C154.77 71.77 155.53 71.69 156.23 71.48C158.14 69.83 159.2 67.45 160 65.11C161.55 61.78 161.9 58.18 162.43 54.61C162.88 51.19 163.77 47.77 161.43 44.8C160.62 44.15 159.46 44.65 158.73 43.93C155.5 46.82 154.43 51.36 152.87 55.25C152.1 60.66 150.28 67.44 154.07 72.03V72.02ZM151.84 76.59C150.5 75.98 149.52 74.68 149.01 73.43C149.01 73.45 149.03 73.47 149.04 73.49C149.07 73.55 149.1 73.61 149.13 73.66C149.07 73.54 149.01 73.42 148.95 73.3C148.95 73.32 148.97 73.33 148.98 73.35C148.98 73.35 148.98 73.36 148.98 73.37C147.04 70.12 147.08 66.12 147.59 62.51C148.1 56.46 150.58 50.97 153.99 46.03C154.88 44.7 156.07 43.58 157.26 42.51C158.19 41.81 159.21 40.74 160.47 40.91C163.79 41.43 164.63 43.21 165.97 46.01C167.45 49.6 166.58 53.52 166.34 57.28C166.57 60.29 165.7 63.19 164.61 65.97C163.34 69.43 161.85 73.01 158.98 75.46C158.1 76.2 156.93 76.41 155.86 76.75C154.57 77.32 153.06 77.31 151.83 76.59H151.84Z" fill="#223F61"/>
<path d="M147.7 57.54C147.23 56.24 145.94 55.78 144.66 55.75C144.36 55.71 144.09 55.86 143.9 56.08C144.57 57.39 142.48 58.27 142.03 56.87C141 53.08 147.13 52.38 149.11 54.6C150.06 55.52 151.39 57.25 149.82 58.24C149.06 58.69 148.06 58.35 147.7 57.53V57.54Z" fill="#223F61"/>
<path d="M135.58 64.11C134.14 63.31 134.7 61.22 134.87 59.89C134.84 57.28 136.61 53.06 139.82 53.98C142.57 55.66 140.22 59.42 139.12 61.51C138.36 62.74 137.35 64.84 135.58 64.11Z" fill="#223F61"/>
<path d="M158.41 68.26C154.8 67.77 158.23 57.81 161.2 59.06C162.15 59.53 162.97 60.26 162.88 61.42C162.82 64.02 161.72 68.57 158.41 68.27V68.26Z" fill="#223F61"/>
<path d="M138.27 86.7C136.65 86.38 134.79 85.96 133.6 84.74C133.01 83.88 132.37 82.68 132.77 81.64C133.39 80.17 135.65 80.97 135.39 82.48C135.47 82.68 135.61 82.86 135.82 82.93C137.16 83.34 138.56 83.58 139.94 83.25C140.89 83.08 141.8 83.84 141.93 84.76C142.13 86.91 139.8 86.91 138.26 86.7H138.27Z" fill="#223F61"/>
<path d="M125.66 235.83C119.36 235.52 114.32 231.37 108.48 229.45C103.03 227.54 98.99 223.1 93.54 221.23C89.96 219.69 86.96 217.16 83.39 215.58C81.11 214.1 79.11 212.2 76.72 210.88C72.33 207.89 68.63 203.74 64.43 200.38C62.13 198.07 59.88 195.73 57.46 193.54C55.84 191.88 54.87 189.75 53.72 187.76C52.04 185.23 50.59 182.57 49.67 179.67C48.13 174.98 50.19 170.13 53.84 167.07C56.04 164.35 58.03 161.44 60.82 159.26C64.16 156.37 67.91 154.01 71.23 151.1C75.09 148.1 78.5 144.58 82.41 141.65C89.37 136.72 95.98 131.2 103.4 127C106.51 125.43 109.28 124.11 112.16 122.27C114.22 121.08 120.62 115.6 121.56 119.78C121.56 120.7 120.74 121.35 119.86 121.29C118.63 121.31 117.66 122.21 116.68 122.82C111.87 126.45 106.79 129.18 102 132.74C95.72 138.27 88.94 143.19 82.56 148.58C78.29 152.7 73.77 156.58 69.02 160.13C65.05 162.99 62 165.81 59.32 169.72C54.45 174.8 53.86 176.12 57.67 182.45C59.43 184.71 60.39 187.57 62.55 189.5C65.28 191.53 67.53 194.09 70.2 196.19C73.56 198.47 76.4 201.36 79.57 203.87C82.47 205.49 85.06 207.57 87.86 209.33C90.53 210.31 92.8 212.01 95.25 213.42C99.23 215 102.99 216.93 106.33 219.64C109.24 221.64 112.53 222.84 115.74 224.24C118.23 225.34 120.53 226.84 123.08 227.82C125.68 228.69 128.5 228.54 131.13 229.25C134.66 230.23 134.38 235.51 130.68 236.01C129.02 236.22 127.32 235.99 125.67 235.83H125.66Z" fill="#223F61"/>
<path d="M199.84 196.47C197.7 193.97 200.47 192.08 202.64 191.12C205.38 189.68 208.18 188.37 211.02 187.12C216.67 184.21 222.94 183.25 228.96 181.46C235.62 179.39 241.67 175.27 247.11 171.14C245 166.54 240.06 164.21 235.95 161.68C231.29 158.36 226.34 155.6 221.11 153.27C214.92 149.82 208.15 147.54 201.68 144.8C195.52 143.17 190.34 139.42 184.47 137.1C179.13 134.58 173.72 132.25 168.18 130.21C164.46 128.78 160.9 126.93 157.02 125.92C156.11 126.67 155.02 125.5 155.45 124.52C155.76 123.86 156.52 123.67 157.18 123.92C158.59 124.32 160.01 124.64 161.42 125.04C166.06 126.61 170.74 128.21 175.41 129.68C180.63 131.53 185.75 133.67 190.87 135.77C193.5 136.97 195.96 138.57 198.72 139.49C210.48 143.46 222.04 148.22 232.97 154.12C238.22 157.72 244.17 160.34 248.83 164.76C252.59 169.01 254.18 173.05 248.46 176.51C242.25 180.92 235.84 185.26 228.36 187.15C225.24 188.12 222 188.63 218.91 189.67C214.34 191.38 209.92 193.48 205.51 195.58C203.75 196.37 201.59 198.19 199.84 196.46V196.47Z" fill="#223F61"/>
<path d="M178.65 150.45C179.269 150.45 179.77 149.949 179.77 149.33C179.77 148.711 179.269 148.21 178.65 148.21C178.031 148.21 177.53 148.711 177.53 149.33C177.53 149.949 178.031 150.45 178.65 150.45Z" fill="#223F61"/>
<path d="M200.2 194.34C195.45 191.62 189.47 187.58 189.58 181.49C190.41 176.68 196.17 175.54 199.99 173.87C203.35 172.35 207.02 172.44 210.59 171.9C212.79 171.39 214.91 170.47 216.85 169.32C216.6 168.44 215.76 168.03 215.07 167.53C212.77 165.95 210.26 164.76 207.7 163.67C203.92 161.62 200.08 160.22 196.26 158.34C193.65 156.9 191.07 155.41 188.42 154.05C184.64 152.15 180.78 150.44 176.79 149.03C172.98 147.69 169.06 146.26 166.16 143.33C165.86 142.97 166.42 142.65 166.74 142.99C167.8 143.82 168.89 144.66 170.08 145.25C175.77 147.84 182 149.06 187.74 151.54C191.73 152.99 195.5 154.98 199.47 156.47C201.56 157.17 203.67 157.77 205.7 158.64C210.54 160.97 224.9 164.27 220.98 171.88C216.87 176.11 210.57 177.01 204.97 177.65C201.85 178.46 198.84 179.71 195.92 181.06C193.39 182.01 194.96 183.43 195.88 185.02C197.55 187.51 200.43 188.77 202.76 190.53C205 192.23 202.62 195.76 200.19 194.33L200.2 194.34Z" fill="#223F61"/>
<path d="M185.77 198.68C175.47 196.62 185.66 186.38 191.23 185.25C195.11 183.74 195.32 189.79 191.64 188.68C188.81 189.62 186.78 191.73 185.46 194.33C187.08 195.12 188.59 193.8 190.1 193.31C192.39 192.49 194.56 191.42 196.49 189.94C198.68 188.36 201.07 191.46 199 193.19C196.72 195.17 193.96 196.37 191.15 197.39C189.46 198.1 187.64 199.08 185.77 198.68Z" fill="#223F61"/>
<path d="M201.15 197.3C199.25 197.18 196.83 194.28 198.22 192.54C199.17 191.55 200.36 192.52 201.16 193.19C201.96 193.85 203.01 194.64 202.86 195.8C202.75 196.62 202 197.32 201.15 197.29V197.3Z" fill="#223F61"/>
<path d="M129.23 231.64C129 230.66 129.28 229.7 129.81 228.88C130.11 227.75 130.08 226.52 130.24 225.36C129.54 222.84 127.07 221.16 125.39 219.25C123.92 217.69 122 216.86 120.11 215.95C115.99 213.72 112.2 210.93 107.94 208.96C104.28 207.31 100.77 205.4 97.27 203.45C95.3 202.12 92.87 201.56 91.12 199.9C89.08 197.7 86.55 196.01 84.64 193.7C82.64 191.11 80.68 188.5 79.23 185.55C76.88 182.03 77.31 177.51 78.21 173.57C79.47 169.37 82.93 166.44 85.99 163.51C90.22 159.94 94.53 156.96 99.42 154.35C102.5 152.82 105.76 151.66 108.66 149.77C109.98 149.25 113.24 145.7 114.23 147.39C114.77 148.52 113.35 148.88 112.65 149.37C106.97 153.4 100.66 156.42 95.23 160.81C92.66 163 90.25 165.37 87.9 167.78C85.3 170.65 82.43 173.62 82.35 177.75C82.21 179.19 82.25 180.06 82.37 181.38C82.97 183.36 84.18 185.15 85.1 186.99C86.43 188.72 87.6 190.62 89.13 192.19C90.68 193.47 92.24 194.74 93.64 196.18C95.14 197.72 97.42 197.94 99.17 199.11C103.47 201.36 107.9 203.23 112.31 205.23C116.77 207.24 120.61 210.41 125.12 212.35C127.35 213.46 129.1 215.3 130.78 217.1C132.5 219.2 134.64 221.22 135.14 223.99C135.55 225.61 134.98 227.23 134.97 228.86C134.67 230.67 134.04 233.29 131.91 233.55C130.71 233.66 129.49 232.83 129.26 231.63L129.23 231.64Z" fill="#223F61"/>
<path d="M139.81 238.04C137.48 237.96 134.89 237.62 132.98 236.29C132.24 235.88 131.39 235.53 130.72 234.99C129.41 233.91 129.43 231.64 131.03 230.84C132.11 230.28 133.48 230.65 134.12 231.64C136.71 233.67 139.98 233.41 143.07 233.88C141.13 231.22 137.76 229.84 134.77 228.7C133 230.6 131.33 226.75 133.75 226.21C134.63 225.94 135.57 226.16 136.45 226.37C139.32 227.16 142.16 228.2 144.67 229.81C147.07 231.35 149.4 235.49 146.45 237.6C144.48 238.91 141.99 238.28 139.8 238.04H139.81Z" fill="#223F61"/>
<path d="M192.45 163.95C187.58 163.88 182.72 163.8 177.86 163.49C173.91 163.13 170.23 162.61 166.31 162.67C154.42 162.41 142.6 163.2 130.74 162.95C125.44 163.08 120.14 162.86 114.83 162.89C108.49 162.54 102.02 161.62 95.69 161.99C95.33 162.04 94.98 162.11 94.62 162.17C93.91 162.26 93.58 161.17 94.25 160.88C94.27 160.88 94.28 160.86 94.3 160.86C94.32 160.83 94.34 160.81 94.36 160.78C94.54 160.56 94.85 160.5 95.11 160.6C101.17 159.7 107.41 160.07 113.52 160.19C118.68 159.99 123.86 159.94 129 159.74C141.56 159.6 154 158.5 166.55 158.63C172.34 158.59 178.08 159.53 183.87 159.68C189.92 160.06 196.17 159.29 202.07 160.82C203.59 160.72 204.08 162.78 202.58 163.32C201.88 163.97 200.74 163.86 199.82 163.93C197.37 163.93 194.92 163.95 192.47 163.96L192.45 163.95Z" fill="#223F61"/>
<path d="M288.23 157.65C277.01 156.54 265.75 157.53 254.51 157.73C247.36 158.01 240.13 157.24 233.03 157.85C231.77 158.17 230.72 157.73 231.63 156.32C231.57 155.64 232.57 155.21 233.02 155.76C236.04 154.01 239.75 154.52 243.11 154.31C245.99 154.24 248.87 154.2 251.75 154.1C262.6 153.79 273.45 152.67 284.3 153.17C286.47 153.35 288.74 153.22 290.87 153.65C294.43 155.27 291.04 159.53 288.22 157.65H288.23Z" fill="#223F61"/>
<path d="M59.91 163.28C51.52 163.67 43.15 162.94 34.76 163C25.95 162.87 17.11 163.77 8.33 162.95C6.45 162.57 0.259998 162.72 0.679998 160C0.909998 158.62 3.01 158.32 3.84 159.3C11.37 160.69 19.07 159.98 26.68 159.69C36.15 159.12 45.63 159.63 55.11 159.47C57.35 159.36 59.56 159.25 61.79 159.43C64.2 159.23 65.37 162.29 63.01 163.32C62.02 163.6 60.81 164.05 59.93 163.29L59.91 163.28Z" fill="#223F61"/>
<path d="M124.48 215.21C121.64 209.48 118.3 204.12 114.63 198.99C114.15 198.41 113.67 197.82 113.08 197.37C111.81 196.25 113.26 194.25 114.71 195.15C114.67 195.13 114.64 195.11 114.61 195.09C115.16 195.33 115.79 195.63 115.96 196.25C117.4 197.77 118.56 199.52 119.77 201.22C122.46 205.3 125.37 209.24 127.89 213.42C129.07 215.64 125.65 217.45 124.48 215.21Z" fill="#223F61"/>
<path d="M113.24 195.28C112.62 192.73 115.99 192.7 117.67 192.21C121.73 191.21 125.92 190.11 129.96 189.1C136.64 186.65 143.33 184.19 150.17 182.21C156.15 180.59 162.31 179.45 168.26 177.8C172.32 176.58 176.29 175.43 180.4 174.44C183.23 173.36 186.23 172.56 189.28 172.83C191.07 173.37 191.99 175.58 193.28 176.85C193.66 177.3 193.67 177.96 193.22 178.38C191.79 179.59 190.28 176.34 189.19 175.6C186.63 176.21 184.13 176.94 181.68 177.92C177.91 178.95 174.07 179.79 170.3 180.88C163.59 182.71 156.69 183.74 149.94 185.42C144.6 187.11 139.15 188.44 133.97 190.56C128.09 192.57 121.93 193.62 115.95 195.31C115.65 196.7 113.5 196.7 113.24 195.28Z" fill="#223F61"/>
<path d="M236.79 244.49C234.64 240.58 232.87 236.48 230.5 232.68C226.96 227.4 223.4 222.13 219.76 216.91C214.37 210.22 210.24 202.65 205.02 195.84C204.64 195.34 204.75 194.6 205.2 194.18C206.14 193.18 208.36 194.82 208.23 195.95C211.9 200.78 215.03 206 218.86 210.71C222.94 215.38 226.53 220.44 230.28 225.38C233.78 229.74 236.84 234.44 239.5 239.35C239.43 239.23 239.39 239.18 239.34 239.08C239.39 239.16 239.43 239.23 239.48 239.31C239.61 239.52 239.74 239.74 239.87 239.96C241.63 240.66 242.21 243.47 241.05 244.92C239.93 246.3 237.59 246.07 236.8 244.47L236.79 244.49Z" fill="#223F61"/>
<path d="M155.24 259.97C150.36 253.5 145.55 246.91 140.65 240.44C140.54 240.53 140.36 240.56 140.25 240.41C139.74 239.82 139.49 239.08 139.16 238.39C138.97 238.13 138.62 237.84 138.89 237.51C139.04 237.33 139.3 237.32 139.48 237.46C142.25 240.5 144.6 243.84 147.32 246.9C150.47 250.39 153.2 254.39 156.53 257.65C158.52 258.38 156.92 261.28 155.24 259.97Z" fill="#223F61"/>
<path d="M158.28 261.18C157.58 260.95 157.16 260.4 156.81 259.8C155.45 260.47 153.94 258.77 154.82 257.51C156.28 255.32 158.33 256.29 159.23 258.38C175.62 254.54 192.03 250.71 208.53 247.38C217.39 245.84 226.35 244.98 235.23 243.55C236.59 243.47 238.04 242.93 239.35 243.48C241.22 244.31 241.12 247.26 239.15 247.9C229.21 248.97 219.12 250.03 209.23 251.45C209.33 251.44 209.43 251.42 209.51 251.41C199.19 253.4 188.85 255.2 178.63 257.63C174.78 258.45 170.89 259.05 167.04 259.89C165.04 260.29 163.02 260.62 161.02 261.05C160.12 261.25 159.18 261.48 158.27 261.18H158.28Z" fill="#223F61"/>
<path d="M125.66 201.09C124.09 198.38 128.46 198.58 130.03 198.18C135.68 197.02 141.32 195.76 146.99 194.67C151.15 193.84 155.3 192.95 159.47 192.17C161.13 192.11 164.12 190.47 164.97 192.53C165.54 193.89 164.01 195.34 162.7 194.63C151.03 196.21 139.55 199.04 127.96 201.11C127.42 201.85 126.22 201.79 125.67 201.08L125.66 201.09Z" fill="#223F61"/>
<path d="M134.08 204.12C132.43 203.07 134.01 200.54 135.68 201.58C142.08 200.05 148.51 198.65 155 197.53C156.8 197.16 157.39 199.86 155.6 200.27C150.65 201.19 145.72 201.84 140.87 203.19C138.71 203.5 136.14 205.07 134.08 204.11V204.12Z" fill="#223F61"/>
<path d="M134.92 209.03C134.69 208.39 135.3 208.04 135.83 207.93C135.82 207.93 135.81 207.93 135.8 207.94C135.8 207.94 135.79 207.94 135.78 207.95C144.43 205.13 153.56 204.09 162.32 201.71C164.23 201.13 164.66 204.19 162.62 204.12C155.96 205.06 149.37 206.19 142.81 207.65C140.35 208.17 138.11 208.79 135.76 209.49C135.42 209.59 135.04 209.35 134.92 209.03Z" fill="#223F61"/>
<path d="M190.1 230.23C189.59 227.71 193.01 228.22 194.55 227.74C200.99 226.39 207.38 226.07 213.89 225.68C215.23 225.44 217.28 224.38 218.18 225.92C218.69 226.85 218.03 228 217.05 228.25C213.22 229 209.25 228.71 205.37 229.04C201.24 229.28 197.22 230.02 193.17 230.68C192.41 231.65 190.51 231.4 190.1 230.23Z" fill="#223F61"/>
<path d="M183.23 238.3C182.54 238.06 182.4 237.21 182.89 236.74C183.33 236.39 183.91 235.89 184.51 236.02C189.35 234.78 194.25 233.81 199.18 232.96C205.76 231.6 212.39 229.8 219.07 229.13C219.83 228.93 220.74 228.78 221.34 229.42C221.96 230.05 221.9 231.24 221.05 231.64C220.29 232.02 219.28 232.48 218.59 231.76C212.16 232.33 205.92 234.05 199.58 235.18C194.03 235.97 188.51 236.9 183.23 238.3Z" fill="#223F61"/>
<path d="M178.76 244.86C178.55 244.28 178.85 243.63 179.43 243.42C181.23 242.75 183.02 242.07 184.84 241.46C192.02 238.96 199.74 238.94 207.02 236.87C211.01 235.77 215.01 234.67 219.06 233.81C220.27 233.65 222.06 232.63 222.73 234.19C223.17 235.3 221.83 236.37 220.84 235.74C215.11 236.63 209.58 238.48 203.95 239.82C198.61 240.92 193.22 241.33 187.99 242.78C185.36 243.56 182.77 244.56 180.2 245.53C179.64 245.74 178.96 245.44 178.76 244.86Z" fill="#223F61"/>
<path d="M185.13 189.7C184.03 188.86 184.55 187.35 184.63 186.18C185.12 184.03 185.47 181.86 185.85 179.7C187.82 169.28 191.48 159.22 192.97 148.7C192.75 147.73 193.39 146.41 194.55 146.64C195.29 146.78 195.74 147.53 195.6 148.26C195.06 151.78 194.64 155.33 193.9 158.82C192.82 165.65 191.07 172.35 190.08 179.19C189.55 181.93 189.37 184.2 188.75 186.82C188.7 188.78 187.3 191.25 185.13 189.71V189.7Z" fill="#223F61"/>
<path d="M182.74 205.38C182.45 204.56 182.72 203.64 183.4 203.12C183.58 201.86 183.96 200.59 183.98 199.33C183.75 198.02 184.88 196.6 186.21 197.4C186.97 197.93 187.28 199.17 186.83 199.99C186.73 201.59 186.34 203.21 186.64 204.79C186.69 206.99 183.4 207.45 182.74 205.39V205.38Z" fill="#223F61"/>
<path d="M183.79 206.56C181.31 206.06 182.33 201.77 182.62 199.99C182.61 200.03 182.59 200.07 182.58 200.1C182.91 199.04 183.08 197.74 183.38 196.83C183.88 195.98 185.06 195.78 185.73 196.48C186.3 197.07 186.18 197.79 186.05 198.51C186 199.52 186.01 200.53 185.98 201.54C185.53 203.31 186.6 206.74 183.78 206.56H183.79Z" fill="#223F61"/>
<path d="M85.63 130.99C80.25 130.41 74.18 128.95 71.34 123.87C69.72 120.8 69.22 117.27 68.76 113.87C68.03 109.14 68.16 104.13 70.47 99.84C73.87 92.45 81.44 88.82 87.92 84.6C93.77 81 95.04 75.51 93.67 69.11C91.66 62.13 91.33 55.15 91.29 47.94C90.32 37.43 91.96 26.84 100.02 19.33C105.02 14.42 110.19 9.45 116.55 6.35C120.6 4.64 127.38 0.260001 131.18 4.05C131.86 5.06 130.55 5.62 129.92 4.69C126.54 1.81 116.65 7.97 113.36 9.94C107.55 14.23 102 19.28 97.78 25.07C95.12 28.91 93.84 33.79 93.53 38.32C93.25 41.99 93.62 45.67 93.83 49.33C93.85 55.94 94.51 62.15 96.43 68.43C100.53 86.15 86.95 86.77 77.37 96.66C73.22 101.2 71.88 107.35 73.16 113.26C73.8 116.71 74.01 120.8 76.81 123.27C79.4 125.49 83.03 125.78 86.28 126.2C87.59 126.36 88.52 127.64 88.35 128.92C88.18 130.24 86.91 131.16 85.62 130.99H85.63Z" fill="#223F61"/>
<path d="M171.81 130.25C170.78 127.63 172.99 126.22 175.11 125.4C177.41 124.27 179.56 122.88 181.24 120.92C182.7 119.07 184.74 117.04 184.67 114.53C183.97 108.05 180.24 102.72 176.6 97.59C171.87 91.4 171.77 86.61 176.28 80.24C179.13 75.77 183.12 72.18 186.34 68.03C188.98 63.03 190.99 57.59 192.39 52.12C193.34 47.29 192.69 42.08 190.57 37.66C185.12 28.23 176.33 21.03 166.91 15.78C166.26 15.4 166.85 14.38 167.5 14.76C170.29 16.38 173.07 17.99 175.71 19.85C179.06 22.23 182.1 25.04 184.91 28.03C198.41 40.98 195.53 52.41 188.87 67.94C186.55 72.32 182.42 75.67 179.82 79.83C177.02 83.77 174.37 88.92 178.09 93.1C182.78 99.31 188.04 105.46 189.57 113.33C190.59 117.64 187.92 121.68 185.33 124.89C183.27 127.5 180.51 129.49 177.59 131.03C175.66 132.35 172.95 132.81 171.79 130.25H171.81Z" fill="#223F61"/>
</g>
</g>
<defs>
<clipPath id="clip0_1_151">
<rect width="294.69" height="261.72" fill="white"/>
</clipPath>
</defs>
</svg>
